<svg width="1024" height="373" viewBox="0 0 1024 373" fill="none" xmlns="http://www.w3.org/2000/svg">
<mask id="mask0" mask-type="alpha" maskUnits="userSpaceOnUse" x="0" y="0" width="1024" height="373">
<rect width="1024" height="373" rx="53" fill="#4FC3F7"/>
</mask>
<g mask="url(#mask0)">
<rect width="1024" height="373" fill="#4FC3F7"/>
<circle cx="128.5" cy="342.5" r="155.5" fill="#FF6025"/>
<circle cx="808" cy="51" r="160" fill="#FF642B"/>
<g filter="url(#filter0_bd)">
<rect x="45" y="56" width="934" height="262" rx="8" fill="white" fill-opacity="0.5" shape-rendering="crispEdges"/>
</g>
<path d="M221.28 203.952L244.32 204.384C248.832 204.384 253.248 204 257.568 203.232C257.952 204.192 258.144 205.008 258.144 205.68L257.856 207.408C254.208 208.944 252.192 212.064 251.808 216.768C251.136 223.296 250.8 232.512 250.8 244.416C245.04 244.416 238.368 245.136 230.784 246.576C223.2 248.112 217.152 248.88 212.64 248.88C196.128 248.88 183.072 243.744 173.472 233.472C163.968 223.104 159.216 210.096 159.216 194.448C159.216 178.704 164.4 165.696 174.768 155.424C185.136 145.152 198.384 140.016 214.512 140.016C227.568 140.016 239.136 141.408 249.216 144.192C249.888 144.384 250.224 144.72 250.224 145.2C250.224 145.68 250.176 146.304 250.08 147.072C250.08 147.84 249.984 148.944 249.792 150.384C249.696 151.728 249.6 153.264 249.504 154.992C249.312 158.64 249.216 163.44 249.216 169.392C248.544 169.776 247.632 169.968 246.48 169.968C245.328 169.968 244.416 169.824 243.744 169.536C242.016 161.76 240.768 156.912 240 154.992C232.416 148.464 223.2 145.2 212.352 145.2C201.6 145.2 192.624 149.04 185.424 156.72C178.32 164.4 174.768 174.912 174.768 188.256C174.768 197.664 176.304 206.496 179.376 214.752C182.544 223.008 187.2 229.824 193.344 235.2C199.584 240.48 206.784 243.12 214.944 243.12C223.2 243.12 231.072 241.392 238.56 237.936V229.152C238.56 221.952 238.272 215.424 237.696 209.568C232.8 208.992 227.328 208.704 221.28 208.704C220.896 208.032 220.704 207.264 220.704 206.4L221.28 203.952ZM331.639 246.576L307.015 246H297.511C286.663 246 278.647 246.384 273.463 247.152C272.983 246.576 272.743 245.76 272.743 244.704L272.887 243.552C277.879 242.4 281.143 240.624 282.679 238.224C283.927 236.304 284.887 232.656 285.559 227.28C286.327 221.808 286.711 211.296 286.711 195.744V166.656C286.711 153.504 286.087 146.88 284.839 146.784C283.015 146.496 280.135 146.352 276.199 146.352C275.911 145.68 275.767 144.912 275.767 144.048C275.767 143.184 275.911 142.464 276.199 141.888L290.023 142.32C298.855 142.32 305.671 141.936 310.471 141.168C311.047 141.936 311.335 142.704 311.335 143.472L311.047 144.768C307.111 145.824 304.519 147.168 303.271 148.8C302.023 150.336 301.255 152.592 300.967 155.568C299.815 167.376 299.239 180.192 299.239 194.016V221.232C299.239 230.256 299.527 236.592 300.103 240.24C303.559 240.624 307.591 240.816 312.199 240.816C322.087 240.816 331.879 239.52 341.575 236.928C343.111 234.72 344.503 231.792 345.751 228.144C347.095 224.4 347.911 222.144 348.199 221.376C348.679 221.28 349.399 221.232 350.359 221.232C351.319 221.232 352.375 221.664 353.527 222.528C353.143 224.544 352.519 228.768 351.655 235.2C350.791 241.632 350.263 244.944 350.071 245.136C348.823 246.096 342.679 246.576 331.639 246.576ZM461.34 246.432L444.492 246C437.196 246 430.812 246.384 425.34 247.152C424.764 246.384 424.476 245.568 424.476 244.704L424.764 243.552C428.508 242.688 431.1 241.728 432.54 240.672C434.076 239.52 434.844 238.272 434.844 236.928C434.844 235.584 434.172 232.896 432.828 228.864L424.332 207.264C419.148 206.976 412.956 206.832 405.756 206.832L385.164 207.264L381.564 216.48C376.764 228.384 374.364 236.832 374.364 241.824C376.572 241.92 379.932 241.968 384.444 241.968C384.636 242.64 384.732 243.408 384.732 244.272C384.732 245.136 384.636 245.856 384.444 246.432L369.18 246C363.132 246 357.852 246.384 353.34 247.152C352.764 246.48 352.476 245.664 352.476 244.704L352.764 243.552C357.66 242.208 361.212 240.096 363.42 237.216C365.724 234.336 369.132 227.808 373.644 217.632L409.212 136.992H411.516L444.636 221.664C445.212 223.488 446.7 227.04 449.1 232.32C451.596 237.504 453.18 240.576 453.852 241.536C456.54 241.824 459.036 241.968 461.34 241.968C461.628 242.64 461.772 243.408 461.772 244.272C461.772 245.136 461.628 245.856 461.34 246.432ZM387.324 201.648L405.756 202.224C412.38 202.224 417.948 202.08 422.46 201.792L405.756 157.728L387.324 201.648ZM527.735 150.96C521.303 146.832 515.111 144.768 509.159 144.768C503.207 144.768 498.407 146.4 494.759 149.664C491.111 152.928 489.287 157.056 489.287 162.048C489.287 166.944 491.255 171.216 495.191 174.864C499.127 178.512 505.463 182.448 514.199 186.672C528.215 193.488 537.095 200.784 540.839 208.56C542.567 212.208 543.431 216.096 543.431 220.224C543.431 229.152 539.639 236.16 532.055 241.248C524.567 246.336 515.735 248.88 505.559 248.88C500.087 248.88 494.375 248.352 488.423 247.296C482.471 246.24 478.199 245.184 475.607 244.128C474.647 236.64 473.015 228.096 470.711 218.496C472.439 217.632 473.735 217.2 474.599 217.2C475.559 217.2 476.279 217.248 476.759 217.344C479.447 224.064 481.943 229.152 484.247 232.608C486.263 234.72 488.039 236.448 489.575 237.792C491.111 239.04 493.607 240.336 497.062 241.68C500.615 243.024 504.887 243.696 509.879 243.696C514.871 243.696 519.383 241.968 523.415 238.512C527.447 235.056 529.463 230.64 529.463 225.264C529.463 220.944 528.695 217.824 527.159 215.904C525.623 213.984 524.471 212.544 523.703 211.584C523.031 210.624 521.687 209.52 519.671 208.272C517.655 206.928 516.263 206.016 515.495 205.536C514.727 205.056 513.047 204.144 510.455 202.8C507.959 201.456 505.703 200.256 503.687 199.2C501.767 198.048 500.135 197.088 498.791 196.32C497.447 195.552 495.383 194.352 492.599 192.72C489.815 190.992 487.847 189.648 486.695 188.688C485.543 187.632 484.055 186.24 482.23 184.512C480.407 182.784 479.111 181.2 478.343 179.76C476.423 175.632 475.463 171.744 475.463 168.096C475.463 159.264 479.159 152.4 486.551 147.504C493.943 142.512 502.871 140.016 513.335 140.016C517.655 140.016 522.455 140.592 527.735 141.744C533.015 142.896 537.095 144.096 539.975 145.344C539.111 148.704 538.295 155.712 537.527 166.368C536.567 166.848 535.559 167.088 534.503 167.088C533.447 167.088 532.535 166.896 531.767 166.512C531.671 165.36 531.095 162.768 530.039 158.736C528.983 154.608 528.215 152.016 527.735 150.96ZM619.703 150.96C613.271 146.832 607.079 144.768 601.127 144.768C595.175 144.768 590.375 146.4 586.727 149.664C583.079 152.928 581.255 157.056 581.255 162.048C581.255 166.944 583.223 171.216 587.159 174.864C591.095 178.512 597.431 182.448 606.167 186.672C620.183 193.488 629.063 200.784 632.807 208.56C634.535 212.208 635.399 216.096 635.399 220.224C635.399 229.152 631.607 236.16 624.023 241.248C616.535 246.336 607.703 248.88 597.527 248.88C592.055 248.88 586.343 248.352 580.391 247.296C574.439 246.24 570.167 245.184 567.575 244.128C566.615 236.64 564.983 228.096 562.679 218.496C564.407 217.632 565.703 217.2 566.567 217.2C567.527 217.2 568.247 217.248 568.727 217.344C571.415 224.064 573.911 229.152 576.215 232.608C578.231 234.72 580.007 236.448 581.543 237.792C583.079 239.04 585.575 240.336 589.031 241.68C592.583 243.024 596.855 243.696 601.847 243.696C606.839 243.696 611.351 241.968 615.383 238.512C619.415 235.056 621.431 230.64 621.431 225.264C621.431 220.944 620.663 217.824 619.127 215.904C617.591 213.984 616.439 212.544 615.671 211.584C614.999 210.624 613.655 209.52 611.639 208.272C609.623 206.928 608.231 206.016 607.463 205.536C606.695 205.056 605.015 204.144 602.423 202.8C599.927 201.456 597.671 200.256 595.655 199.2C593.735 198.048 592.103 197.088 590.759 196.32C589.415 195.552 587.351 194.352 584.567 192.72C581.783 190.992 579.815 189.648 578.663 188.688C577.511 187.632 576.023 186.24 574.199 184.512C572.375 182.784 571.079 181.2 570.311 179.76C568.391 175.632 567.431 171.744 567.431 168.096C567.431 159.264 571.127 152.4 578.519 147.504C585.911 142.512 594.839 140.016 605.303 140.016C609.623 140.016 614.423 140.592 619.703 141.744C624.983 142.896 629.063 144.096 631.943 145.344C631.079 148.704 630.263 155.712 629.495 166.368C628.535 166.848 627.527 167.088 626.471 167.088C625.415 167.088 624.503 166.896 623.735 166.512C623.639 165.36 623.063 162.768 622.007 158.736C620.951 154.608 620.183 152.016 619.703 150.96ZM674.232 206.4C680.376 206.4 686.184 205.968 691.656 205.104C692.52 205.488 692.952 206.208 692.952 207.264C692.28 209.184 691.656 211.488 691.08 214.176H670.488C664.344 214.176 658.536 214.608 653.064 215.472C652.2 215.088 651.768 214.368 651.768 213.312C652.44 211.392 653.064 209.088 653.64 206.4H674.232ZM706.759 141.888L720.583 142.32C730.759 142.32 738.439 141.936 743.623 141.168C744.199 141.936 744.487 142.752 744.487 143.616L744.199 144.768C739.111 145.92 735.895 147.408 734.551 149.232C733.495 150.576 732.775 152.688 732.391 155.568C731.239 166.8 730.663 182.736 730.663 203.376C730.663 215.76 733.159 225.408 738.151 232.32C743.143 239.232 750.919 242.688 761.479 242.688C774.055 242.688 782.743 239.328 787.543 232.608C792.439 225.792 794.887 215.424 794.887 201.504V183.648C794.887 166.176 794.407 153.888 793.447 146.784C791.239 146.496 787.111 146.352 781.063 146.352C780.871 145.584 780.775 144.768 780.775 143.904C780.775 142.944 780.871 142.272 781.063 141.888L798.055 142.32C805.351 142.32 810.967 141.936 814.903 141.168C815.383 141.744 815.623 142.56 815.623 143.616L815.479 144.768C808.087 146.4 804.055 151.392 803.383 159.744C802.327 172.128 801.799 187.248 801.799 205.104C801.799 219.216 798.295 230.064 791.287 237.648C784.375 245.136 774.055 248.88 760.327 248.88C753.031 248.88 746.647 247.968 741.175 246.144C735.799 244.32 731.575 242.016 728.503 239.232C725.527 236.448 723.127 233.04 721.303 229.008C719.479 224.976 718.279 221.184 717.703 217.632C717.223 213.984 716.983 210.048 716.983 205.824V183.792C716.983 176.016 716.551 163.68 715.687 146.784C713.863 146.496 710.887 146.352 706.759 146.352C706.567 145.68 706.471 144.912 706.471 144.048C706.471 143.184 706.567 142.464 706.759 141.888ZM826.15 141.888L844.87 142.32L863.302 141.888C863.494 142.464 863.59 143.184 863.59 144.048L863.302 146.352C859.078 146.352 855.862 146.496 853.654 146.784C852.022 146.976 851.206 157.776 851.206 179.184V202.656C851.206 211.776 851.398 220.512 851.782 228.864C852.262 237.216 852.838 241.44 853.51 241.536C856.006 241.824 860.23 241.968 866.182 241.968C866.374 242.64 866.47 243.408 866.47 244.272C866.47 245.136 866.374 245.856 866.182 246.432L847.894 246C837.814 246 829.558 246.384 823.126 247.152C822.646 246.672 822.406 245.856 822.406 244.704L822.55 243.552C828.79 242.208 832.63 240.624 834.07 238.8C834.934 237.648 835.51 236.64 835.798 235.776C836.086 234.912 836.326 233.568 836.518 231.744C837.67 224.256 838.246 212.112 838.246 195.312V179.184C838.246 157.776 837.43 146.976 835.798 146.784C833.59 146.496 830.374 146.352 826.15 146.352C825.958 145.68 825.862 144.912 825.862 144.048C825.862 143.184 825.958 142.464 826.15 141.888Z" fill="black"/>
</g>
<defs>
<filter id="filter0_bd" x="-5" y="6" width="1034" height="362" filterUnits="userSpaceOnUse" color-interpolation-filters="sRGB">
<feFlood flood-opacity="0" result="BackgroundImageFix"/>
<feGaussianBlur in="BackgroundImage" stdDeviation="25"/>
<feComposite in2="SourceAlpha" operator="in" result="effect1_backgroundBlur"/>
<feColorMatrix in="SourceAlpha" type="matrix" values="0 0 0 0 0 0 0 0 0 0 0 0 0 0 0 0 0 0 127 0" result="hardAlpha"/>
<feOffset dx="3" dy="3"/>
<feGaussianBlur stdDeviation="1.5"/>
<feComposite in2="hardAlpha" operator="out"/>
<feColorMatrix type="matrix" values="0 0 0 0 0 0 0 0 0 0 0 0 0 0 0 0 0 0 0.5 0"/>
<feBlend mode="normal" in2="effect1_backgroundBlur" result="effect2_dropShadow"/>
<feBlend mode="normal" in="SourceGraphic" in2="effect2_dropShadow" result="shape"/>
</filter>
</defs>
</svg>
